<?xml version="1.0" encoding="UTF-8" standalone="no"?>
<!-- Created with Inkscape (http://www.inkscape.org/) -->
<svg
   xmlns:dc="http://purl.org/dc/elements/1.1/"
   xmlns:cc="http://web.resource.org/cc/"
   xmlns:rdf="http://www.w3.org/1999/02/22-rdf-syntax-ns#"
   xmlns:svg="http://www.w3.org/2000/svg"
   xmlns="http://www.w3.org/2000/svg"
   xmlns:sodipodi="http://sodipodi.sourceforge.net/DTD/sodipodi-0.dtd"
   xmlns:inkscape="http://www.inkscape.org/namespaces/inkscape"
   width="1083"
   height="867"
   id="svg2297"
   sodipodi:version="0.32"
   inkscape:version="0.45.1"
   version="1.0"
   sodipodi:docbase="C:\Documents and Settings\Jim\Desktop\Wikipedia\xy Plane"
   sodipodi:docname="Distance Formula.svg"
   inkscape:output_extension="org.inkscape.output.svg.inkscape">
  <sodipodi:namedview
     id="base"
     pagecolor="#ffffff"
     bordercolor="#666666"
     borderopacity="1.0"
     gridtolerance="10000"
     guidetolerance="10"
     objecttolerance="10"
     inkscape:pageopacity="0.0"
     inkscape:pageshadow="2"
     inkscape:zoom="0.24748737"
     inkscape:cx="601.06614"
     inkscape:cy="364.85397"
     inkscape:document-units="px"
     inkscape:current-layer="layer1"
     inkscape:window-width="1024"
     inkscape:window-height="708"
     inkscape:window-x="-4"
     inkscape:window-y="30" />
  <defs
     id="defs2299" />
  <metadata
     id="metadata2302">
    <rdf:RDF>
      <cc:Work
         rdf:about="">
        <dc:format>image/svg+xml</dc:format>
        <dc:type
           rdf:resource="http://purl.org/dc/dcmitype/StillImage" />
      </cc:Work>
    </rdf:RDF>
  </metadata>
  <g
     inkscape:label="Layer 1"
     id="layer1"
     transform="translate(175.78572,-84.576467)"
     inkscape:groupmode="layer">
    <path
       style="fill:none;fill-rule:nonzero;stroke:#c0c0c0;stroke-width:3px;stroke-linecap:round;stroke-linejoin:round"
       id="path15"
       d="M 473.71427,86.076467 L 473.71427,950.07646 M 581.71427,86.076467 L 581.71427,950.07646 M 689.71427,86.076467 L 689.71427,950.07646 M 797.71427,86.076467 L 797.71427,950.07646 M 257.71427,86.076467 L 257.71427,950.07646 M 149.71428,86.076467 L 149.71428,950.07646 M 41.714281,86.076467 L 41.714281,950.07646 M -66.285719,86.076467 L -66.285719,950.07646 M 365.71427,86.076467 L 365.71427,950.07646 M -174.28572,302.07647 L 905.71427,302.07647 M -174.28572,194.07647 L 905.71427,194.07647 M -174.28572,518.07647 L 905.71427,518.07647 M -174.28572,626.07647 L 905.71427,626.07647 M -174.28572,734.07646 L 905.71427,734.07646 M -174.28572,842.07646 L 905.71427,842.07646 M -174.28572,410.07647 L 905.71427,410.07647" />
    <path
       style="fill:none;fill-rule:nonzero;stroke:#0081cd;stroke-width:9px;stroke-linecap:butt;stroke-linejoin:round"
       id="path17"
       d="M 637.71427,722.07646 L 637.71427,302.07647 L -10.285719,734.07646 L 637.71427,734.07646" />
    <path
       style="fill:#000000;fill-rule:nonzero;stroke:none;stroke-linecap:round;stroke-linejoin:round"
       id="path19"
       d="M -10.285719,722.07646 L -14.285719,723.07646 L -18.285719,725.07646 L -21.285719,729.07646 L -22.285719,734.07646 L -21.285719,738.07646 L -18.285719,742.07646 L -14.285719,745.07646 L -10.285719,746.07646 L -5.285719,745.07646 L -1.285719,742.07646 L 0.714281,738.07646 L 1.714281,734.07646 L 0.714281,729.07646 L -1.285719,725.07646 L -5.285719,723.07646 L -10.285719,722.07646 z M 637.71427,722.07646 L 633.71427,723.07646 L 629.71427,725.07646 L 626.71427,729.07646 L 625.71427,734.07646 L 626.71427,738.07646 L 629.71427,742.07646 L 633.71427,745.07646 L 637.71427,746.07646 L 642.71427,745.07646 L 646.71427,742.07646 L 648.71427,738.07646 L 649.71427,734.07646 L 648.71427,729.07646 L 646.71427,725.07646 L 642.71427,723.07646 L 637.71427,722.07646 z M 637.71427,290.07647 L 633.71427,291.07647 L 629.71427,293.07647 L 626.71427,297.07647 L 625.71427,302.07647 L 626.71427,306.07647 L 629.71427,310.07647 L 633.71427,313.07647 L 637.71427,314.07647 L 642.71427,313.07647 L 646.71427,310.07647 L 648.71427,306.07647 L 649.71427,302.07647 L 648.71427,297.07647 L 646.71427,293.07647 L 642.71427,291.07647 L 637.71427,290.07647 z " />
    <rect
       y="744.57721"
       x="-161.17224"
       height="81.631622"
       style="fill:#ffffff;fill-opacity:1;fill-rule:evenodd;stroke:none;stroke-width:1px;stroke-linecap:butt;stroke-linejoin:miter;stroke-opacity:1"
       id="rect2623"
       width="239.07906" />
    <g
       id="g2375"
       transform="matrix(1.25,0,0,1.25,-600.37967,419.08053)">
      <g
         style="font-style:normal;font-variant:normal;font-weight:normal;font-stretch:normal;letter-spacing:normal;word-spacing:normal;text-anchor:start;fill:none;fill-opacity:1;fill-rule:evenodd;stroke:#000000;stroke-linecap:butt;stroke-linejoin:miter;stroke-miterlimit:10.43299961;stroke-dasharray:none;stroke-dashoffset:0;stroke-opacity:1"
         id="g2377"
         xml:space="preserve"
         transform="matrix(1.2385714,0,0,-1.2385714,-216.75,812.25)"><path
           style="fill:#000000;stroke-width:0"
           id="path2379"
           d="M 472.49,394.04 L 472.49,394.07 L 472.49,394.1 L 472.48,394.11 L 472.48,394.13 L 472.48,394.14 L 472.47,394.16 L 472.47,394.18 L 472.46,394.19 L 472.45,394.21 L 472.44,394.23 L 472.43,394.26 L 472.42,394.28 L 472.4,394.3 L 472.38,394.33 L 472.36,394.36 L 472.34,394.39 L 472.31,394.42 L 472.28,394.46 L 472.27,394.48 L 472.25,394.5 L 472.23,394.52 L 472.21,394.54 L 472.19,394.56 L 472.17,394.59 L 472.15,394.61 L 472.13,394.63 L 472.11,394.66 L 472.08,394.68 L 472.06,394.71 L 472.03,394.74 L 472.01,394.77 L 471.98,394.8 L 471.95,394.83 L 471.92,394.86 L 471.89,394.89 L 471.86,394.92 L 471.82,394.96 L 471.79,394.99 L 471.75,395.03 L 471.72,395.06 L 471.68,395.1 L 471.64,395.14 C 465.41,401.42 463.82,410.83 463.82,418.45 C 463.82,427.12 465.71,435.79 471.84,442.02 C 472.49,442.61 472.49,442.71 472.49,442.86 C 472.49,443.21 472.29,443.36 471.99,443.36 C 471.49,443.36 467.01,439.97 464.07,433.64 C 461.53,428.17 460.93,422.64 460.93,418.45 C 460.93,414.57 461.48,408.54 464.22,402.91 C 467.21,396.79 471.49,393.55 471.99,393.55 C 472.29,393.55 472.49,393.7 472.49,394.04 z " /><path
           style="fill:#000000;stroke-width:0"
           id="path2381"
           d="M 491.64,421.04 L 491.67,421.17 L 491.7,421.32 L 491.75,421.49 L 491.79,421.67 L 491.85,421.86 L 491.91,422.07 L 491.97,422.28 L 492.04,422.51 L 492.12,422.74 L 492.21,422.98 L 492.31,423.23 L 492.41,423.47 L 492.52,423.72 L 492.64,423.97 L 492.77,424.22 L 492.91,424.47 L 493.06,424.71 L 493.21,424.95 L 493.38,425.18 L 493.56,425.4 L 493.74,425.62 L 493.94,425.82 L 494.15,426.01 L 494.37,426.19 L 494.6,426.35 L 494.85,426.49 L 494.97,426.56 L 495.1,426.62 L 495.23,426.67 L 495.37,426.72 L 495.51,426.77 L 495.65,426.81 L 495.79,426.84 L 495.94,426.87 L 496.09,426.89 L 496.25,426.91 L 496.41,426.92 L 496.57,426.92 C 496.82,426.92 498.02,426.92 499.06,426.27 C 497.66,426.02 496.67,424.78 496.67,423.59 C 496.67,422.79 497.21,421.84 498.56,421.84 C 499.66,421.84 501.25,422.74 501.25,424.73 C 501.25,427.32 498.31,428.02 496.62,428.02 C 493.73,428.02 491.98,425.38 491.39,424.23 C 490.14,427.52 487.45,428.02 486.01,428.02 C 480.83,428.02 477.99,421.59 477.99,420.35 C 477.99,419.85 478.49,419.85 478.59,419.85 C 478.98,419.85 479.13,419.95 479.23,420.39 C 480.93,425.68 484.21,426.92 485.91,426.92 C 486.86,426.92 488.6,426.47 488.6,423.59 C 488.6,422.04 487.75,418.7 485.91,411.73 C 485.11,408.64 483.37,406.55 481.18,406.55 C 480.88,406.55 479.73,406.55 478.69,407.2 C 479.93,407.45 481.03,408.49 481.03,409.89 C 481.03,411.23 479.93,411.63 479.18,411.63 C 477.69,411.63 476.45,410.33 476.45,408.74 C 476.45,406.45 478.93,405.45 481.13,405.45 C 484.41,405.45 486.21,408.94 486.36,409.24 C 486.96,407.39 488.75,405.45 491.74,405.45 C 496.87,405.45 499.71,411.88 499.71,413.13 C 499.71,413.62 499.26,413.62 499.11,413.62 C 498.66,413.62 498.56,413.42 498.46,413.07 C 496.82,407.74 493.43,406.55 491.84,406.55 C 489.89,406.55 489.1,408.14 489.1,409.84 C 489.1,410.93 489.39,412.03 489.95,414.22 L 491.64,421.04 z " /><path
           style="fill:#000000;stroke-width:0"
           id="path2383"
           d="M 514.68,421.18 L 514.68,421.22 L 514.68,421.26 L 514.68,421.3 L 514.68,421.34 L 514.68,421.38 L 514.68,421.42 L 514.68,421.45 L 514.68,421.49 L 514.67,421.52 L 514.67,421.55 L 514.67,421.59 L 514.67,421.62 L 514.66,421.64 L 514.66,421.67 L 514.66,421.7 L 514.65,421.73 L 514.65,421.75 L 514.65,421.77 L 514.63,421.82 L 514.62,421.86 L 514.61,421.9 L 514.59,421.93 L 514.57,421.96 L 514.55,421.99 L 514.52,422.02 L 514.5,422.04 L 514.47,422.06 L 514.43,422.08 L 514.4,422.09 L 514.36,422.1 L 514.31,422.12 L 514.26,422.12 L 514.24,422.13 L 514.21,422.13 L 514.18,422.14 L 514.16,422.14 L 514.13,422.14 L 514.1,422.14 L 514.06,422.14 L 514.03,422.15 L 514,422.15 L 513.96,422.15 L 513.93,422.15 L 513.89,422.15 L 513.85,422.15 L 513.81,422.15 L 513.77,422.15 L 513.73,422.15 L 513.68,422.15 L 513.64,422.15 C 511.4,419.96 508.23,419.92 506.8,419.92 L 506.8,418.67 C 507.64,418.67 509.94,418.67 511.86,419.64 L 511.86,401.86 C 511.86,400.71 511.86,400.25 508.37,400.25 L 507.04,400.25 L 507.04,399 C 507.67,399.04 511.96,399.14 513.25,399.14 C 514.33,399.14 518.73,399.04 519.49,399 L 519.49,400.25 L 518.17,400.25 C 514.68,400.25 514.68,400.71 514.68,401.86 L 514.68,421.18 z " /><path
           style="fill:#000000;stroke-width:0"
           id="path2385"
           d="M 536.11,406.05 L 536.11,406.36 L 536.1,406.65 L 536.08,406.94 L 536.06,407.22 L 536.02,407.49 L 535.99,407.75 L 535.94,408.01 L 535.89,408.25 L 535.83,408.49 L 535.76,408.72 L 535.69,408.94 L 535.62,409.15 L 535.53,409.35 L 535.44,409.54 L 535.35,409.72 L 535.25,409.9 L 535.14,410.06 L 535.03,410.21 L 534.91,410.36 L 534.79,410.49 L 534.66,410.62 L 534.53,410.73 L 534.39,410.83 L 534.24,410.93 L 534.09,411.01 L 533.94,411.08 L 533.78,411.14 L 533.62,411.19 L 533.45,411.23 L 533.28,411.26 L 533.11,411.28 L 532.93,411.28 C 531.28,411.28 530.28,410.04 530.28,408.64 C 530.28,407.3 531.28,406 532.93,406 C 533.52,406 534.17,406.2 534.67,406.65 C 534.82,406.75 534.87,406.8 534.92,406.8 C 534.97,406.8 535.02,406.75 535.02,406.05 C 535.02,402.36 533.27,399.38 531.63,397.73 C 531.08,397.18 531.08,397.08 531.08,396.93 C 531.08,396.59 531.33,396.39 531.58,396.39 C 532.13,396.39 536.11,400.22 536.11,406.05 z " /><path
           style="fill:#000000;stroke-width:0"
           id="path2387"
           d="M 572.21,424.98 L 572.22,425.01 L 572.23,425.04 L 572.24,425.07 L 572.25,425.1 L 572.26,425.16 L 572.28,425.21 L 572.29,425.27 L 572.3,425.31 L 572.32,425.36 L 572.33,425.4 L 572.34,425.44 L 572.35,425.48 L 572.35,425.52 L 572.36,425.56 L 572.37,425.59 L 572.37,425.62 L 572.38,425.65 L 572.39,425.68 L 572.39,425.71 L 572.39,425.74 L 572.4,425.77 L 572.4,425.79 L 572.4,425.85 L 572.41,425.9 L 572.41,425.95 L 572.41,426 L 572.41,426.03 L 572.41,426.06 L 572.41,426.09 L 572.41,426.13 C 572.41,427.02 571.71,427.47 570.97,427.47 C 570.47,427.47 569.67,427.17 569.22,426.42 C 569.12,426.18 568.72,424.63 568.52,423.73 C 568.18,422.44 567.82,421.09 567.53,419.75 L 565.28,410.78 C 565.09,410.04 562.95,406.55 559.66,406.55 C 557.12,406.55 556.57,408.74 556.57,410.58 C 556.57,412.88 557.41,415.96 559.11,420.35 C 559.91,422.39 560.1,422.94 560.1,423.93 C 560.1,426.18 558.51,428.02 556.02,428.02 C 551.29,428.02 549.45,420.79 549.45,420.35 C 549.45,419.85 549.94,419.85 550.04,419.85 C 550.54,419.85 550.59,419.95 550.84,420.75 C 552.18,425.43 554.18,426.92 555.87,426.92 C 556.27,426.92 557.12,426.92 557.12,425.33 C 557.12,424.08 556.62,422.79 556.27,421.84 C 554.28,416.56 553.38,413.72 553.38,411.38 C 553.38,406.95 556.52,405.45 559.46,405.45 C 561.4,405.45 563.09,406.3 564.49,407.7 C 563.84,405.1 563.24,402.66 561.25,400.02 C 559.96,398.33 558.06,396.88 555.77,396.88 C 555.07,396.88 552.83,397.04 551.98,398.98 C 552.78,398.98 553.43,398.98 554.13,399.57 C 554.63,400.02 555.13,400.67 555.13,401.62 C 555.13,403.16 553.78,403.36 553.28,403.36 C 552.13,403.36 550.49,402.56 550.49,400.12 C 550.49,397.63 552.68,395.79 555.77,395.79 C 560.9,395.79 566.03,400.32 567.43,405.95 L 572.21,424.98 z " /><path
           style="fill:#000000;stroke-width:0"
           id="path2389"
           d="M 583.68,421.18 L 583.68,421.22 L 583.68,421.26 L 583.68,421.3 L 583.68,421.34 L 583.68,421.38 L 583.68,421.42 L 583.68,421.45 L 583.68,421.49 L 583.67,421.52 L 583.67,421.55 L 583.67,421.59 L 583.67,421.62 L 583.66,421.64 L 583.66,421.67 L 583.66,421.7 L 583.65,421.73 L 583.65,421.75 L 583.65,421.77 L 583.63,421.82 L 583.62,421.86 L 583.61,421.9 L 583.59,421.93 L 583.57,421.96 L 583.55,421.99 L 583.52,422.02 L 583.5,422.04 L 583.47,422.06 L 583.43,422.08 L 583.4,422.09 L 583.36,422.1 L 583.31,422.12 L 583.26,422.12 L 583.24,422.13 L 583.21,422.13 L 583.18,422.14 L 583.16,422.14 L 583.13,422.14 L 583.1,422.14 L 583.06,422.14 L 583.03,422.15 L 583,422.15 L 582.96,422.15 L 582.93,422.15 L 582.89,422.15 L 582.85,422.15 L 582.81,422.15 L 582.77,422.15 L 582.73,422.15 L 582.68,422.15 L 582.64,422.15 C 580.4,419.96 577.23,419.92 575.8,419.92 L 575.8,418.67 C 576.64,418.67 578.94,418.67 580.85,419.64 L 580.85,401.86 C 580.85,400.71 580.85,400.25 577.37,400.25 L 576.04,400.25 L 576.04,399 C 576.67,399.04 580.96,399.14 582.25,399.14 C 583.33,399.14 587.73,399.04 588.49,399 L 588.49,400.25 L 587.17,400.25 C 583.68,400.25 583.68,400.71 583.68,401.86 L 583.68,421.18 z " /><path
           style="fill:#000000;stroke-width:0"
           id="path2391"
           d="M 609.4,418.45 L 609.39,418.82 L 609.39,419.21 L 609.38,419.6 L 609.37,420.01 L 609.33,420.85 L 609.27,421.73 L 609.18,422.65 L 609.08,423.59 L 608.94,424.57 L 608.78,425.57 L 608.58,426.59 L 608.35,427.63 L 608.08,428.68 L 607.78,429.74 L 607.43,430.8 L 607.04,431.87 L 606.82,432.4 L 606.6,432.94 L 606.36,433.47 L 606.11,434 C 603.12,440.12 598.84,443.36 598.34,443.36 C 598.04,443.36 597.84,443.16 597.84,442.86 C 597.84,442.71 597.84,442.61 598.78,441.71 C 603.67,436.79 606.51,428.86 606.51,418.45 C 606.51,409.93 604.66,401.17 598.49,394.89 C 597.84,394.29 597.84,394.2 597.84,394.04 C 597.84,393.75 598.04,393.55 598.34,393.55 C 598.84,393.55 603.32,396.93 606.26,403.26 C 608.8,408.74 609.4,414.27 609.4,418.45 z " /></g>    </g>
    <rect
       y="197.802"
       x="565.92999"
       height="85.672226"
       style="fill:#ffffff;fill-opacity:1;fill-rule:evenodd;stroke:none;stroke-width:1px;stroke-linecap:butt;stroke-linejoin:miter;stroke-opacity:1"
       id="rect3594"
       width="243.11966" />
    <g
       id="g2425"
       transform="matrix(1.25,0,0,1.25,129.90605,-126.34804)">
      <g
         style="font-style:normal;font-variant:normal;font-weight:normal;font-stretch:normal;letter-spacing:normal;word-spacing:normal;text-anchor:start;fill:none;fill-opacity:1;fill-rule:evenodd;stroke:#000000;stroke-linecap:butt;stroke-linejoin:miter;stroke-miterlimit:10.43299961;stroke-dasharray:none;stroke-dashoffset:0;stroke-opacity:1"
         id="g2427"
         xml:space="preserve"
         transform="matrix(1.2385714,0,0,-1.2385714,-216.75,812.25)"><path
           style="fill:#000000;stroke-width:0"
           id="path2429"
           d="M 472.49,394.04 L 472.49,394.07 L 472.49,394.1 L 472.48,394.11 L 472.48,394.13 L 472.48,394.14 L 472.47,394.16 L 472.47,394.18 L 472.46,394.19 L 472.45,394.21 L 472.44,394.23 L 472.43,394.26 L 472.42,394.28 L 472.4,394.3 L 472.38,394.33 L 472.36,394.36 L 472.34,394.39 L 472.31,394.42 L 472.28,394.46 L 472.27,394.48 L 472.25,394.5 L 472.23,394.52 L 472.21,394.54 L 472.19,394.56 L 472.17,394.59 L 472.15,394.61 L 472.13,394.63 L 472.11,394.66 L 472.08,394.68 L 472.06,394.71 L 472.03,394.74 L 472.01,394.77 L 471.98,394.8 L 471.95,394.83 L 471.92,394.86 L 471.89,394.89 L 471.86,394.92 L 471.82,394.96 L 471.79,394.99 L 471.75,395.03 L 471.72,395.06 L 471.68,395.1 L 471.64,395.14 C 465.41,401.42 463.82,410.83 463.82,418.45 C 463.82,427.12 465.71,435.79 471.84,442.02 C 472.49,442.61 472.49,442.71 472.49,442.86 C 472.49,443.21 472.29,443.36 471.99,443.36 C 471.49,443.36 467.01,439.97 464.07,433.64 C 461.53,428.17 460.93,422.64 460.93,418.45 C 460.93,414.57 461.48,408.54 464.22,402.91 C 467.21,396.79 471.49,393.55 471.99,393.55 C 472.29,393.55 472.49,393.7 472.49,394.04 z " /><path
           style="fill:#000000;stroke-width:0"
           id="path2431"
           d="M 491.64,421.04 L 491.67,421.17 L 491.7,421.32 L 491.75,421.49 L 491.79,421.67 L 491.85,421.86 L 491.91,422.07 L 491.97,422.28 L 492.04,422.51 L 492.12,422.74 L 492.21,422.98 L 492.31,423.23 L 492.41,423.47 L 492.52,423.72 L 492.64,423.97 L 492.77,424.22 L 492.91,424.47 L 493.06,424.71 L 493.21,424.95 L 493.38,425.18 L 493.56,425.4 L 493.74,425.62 L 493.94,425.82 L 494.15,426.01 L 494.37,426.19 L 494.6,426.35 L 494.85,426.49 L 494.97,426.56 L 495.1,426.62 L 495.23,426.67 L 495.37,426.72 L 495.51,426.77 L 495.65,426.81 L 495.79,426.84 L 495.94,426.87 L 496.09,426.89 L 496.25,426.91 L 496.41,426.92 L 496.57,426.92 C 496.82,426.92 498.02,426.92 499.06,426.27 C 497.66,426.02 496.67,424.78 496.67,423.59 C 496.67,422.79 497.21,421.84 498.56,421.84 C 499.66,421.84 501.25,422.74 501.25,424.73 C 501.25,427.32 498.31,428.02 496.62,428.02 C 493.73,428.02 491.98,425.38 491.39,424.23 C 490.14,427.52 487.45,428.02 486.01,428.02 C 480.83,428.02 477.99,421.59 477.99,420.35 C 477.99,419.85 478.49,419.85 478.59,419.85 C 478.98,419.85 479.13,419.95 479.23,420.39 C 480.93,425.68 484.21,426.92 485.91,426.92 C 486.86,426.92 488.6,426.47 488.6,423.59 C 488.6,422.04 487.75,418.7 485.91,411.73 C 485.11,408.64 483.37,406.55 481.18,406.55 C 480.88,406.55 479.73,406.55 478.69,407.2 C 479.93,407.45 481.03,408.49 481.03,409.89 C 481.03,411.23 479.93,411.63 479.18,411.63 C 477.69,411.63 476.45,410.33 476.45,408.74 C 476.45,406.45 478.93,405.45 481.13,405.45 C 484.41,405.45 486.21,408.94 486.36,409.24 C 486.96,407.39 488.75,405.45 491.74,405.45 C 496.87,405.45 499.71,411.88 499.71,413.13 C 499.71,413.62 499.26,413.62 499.11,413.62 C 498.66,413.62 498.56,413.42 498.46,413.07 C 496.82,407.74 493.43,406.55 491.84,406.55 C 489.89,406.55 489.1,408.14 489.1,409.84 C 489.1,410.93 489.39,412.03 489.95,414.22 L 491.64,421.04 z " /><path
           style="fill:#000000;stroke-width:0"
           id="path2433"
           d="M 520.61,405.35 L 519.42,405.35 C 519.32,404.58 518.97,402.52 518.52,402.17 C 518.24,401.96 515.55,401.96 515.07,401.96 L 508.65,401.96 C 512.31,405.21 513.53,406.18 515.62,407.82 C 518.2,409.88 520.61,412.04 520.61,415.36 C 520.61,419.57 516.91,422.15 512.45,422.15 C 508.13,422.15 505.2,419.12 505.2,415.91 C 505.2,414.13 506.7,413.96 507.04,413.96 C 507.88,413.96 508.89,414.55 508.89,415.81 C 508.89,416.43 508.65,417.66 506.84,417.66 C 507.92,420.13 510.29,420.9 511.93,420.9 C 515.41,420.9 517.23,418.18 517.23,415.36 C 517.23,412.32 515.07,409.91 513.95,408.66 L 505.55,400.36 C 505.2,400.05 505.2,399.98 505.2,399 L 519.56,399 L 520.61,405.35 z " /><path
           style="fill:#000000;stroke-width:0"
           id="path2435"
           d="M 536.11,406.05 L 536.11,406.36 L 536.1,406.65 L 536.08,406.94 L 536.06,407.22 L 536.02,407.49 L 535.99,407.75 L 535.94,408.01 L 535.89,408.25 L 535.83,408.49 L 535.76,408.72 L 535.69,408.94 L 535.62,409.15 L 535.53,409.35 L 535.44,409.54 L 535.35,409.72 L 535.25,409.9 L 535.14,410.06 L 535.03,410.21 L 534.91,410.36 L 534.79,410.49 L 534.66,410.62 L 534.53,410.73 L 534.39,410.83 L 534.24,410.93 L 534.09,411.01 L 533.94,411.08 L 533.78,411.14 L 533.62,411.19 L 533.45,411.23 L 533.28,411.26 L 533.11,411.28 L 532.93,411.28 C 531.28,411.28 530.28,410.04 530.28,408.64 C 530.28,407.3 531.28,406 532.93,406 C 533.52,406 534.17,406.2 534.67,406.65 C 534.82,406.75 534.87,406.8 534.92,406.8 C 534.97,406.8 535.02,406.75 535.02,406.05 C 535.02,402.36 533.27,399.38 531.63,397.73 C 531.08,397.18 531.08,397.08 531.08,396.93 C 531.08,396.59 531.33,396.39 531.58,396.39 C 532.13,396.39 536.11,400.22 536.11,406.05 z " /><path
           style="fill:#000000;stroke-width:0"
           id="path2437"
           d="M 572.21,424.98 L 572.22,425.01 L 572.23,425.04 L 572.24,425.07 L 572.25,425.1 L 572.26,425.16 L 572.28,425.21 L 572.29,425.27 L 572.3,425.31 L 572.32,425.36 L 572.33,425.4 L 572.34,425.44 L 572.35,425.48 L 572.35,425.52 L 572.36,425.56 L 572.37,425.59 L 572.37,425.62 L 572.38,425.65 L 572.39,425.68 L 572.39,425.71 L 572.39,425.74 L 572.4,425.77 L 572.4,425.79 L 572.4,425.85 L 572.41,425.9 L 572.41,425.95 L 572.41,426 L 572.41,426.03 L 572.41,426.06 L 572.41,426.09 L 572.41,426.13 C 572.41,427.02 571.71,427.47 570.97,427.47 C 570.47,427.47 569.67,427.17 569.22,426.42 C 569.12,426.18 568.72,424.63 568.52,423.73 C 568.18,422.44 567.82,421.09 567.53,419.75 L 565.28,410.78 C 565.09,410.04 562.95,406.55 559.66,406.55 C 557.12,406.55 556.57,408.74 556.57,410.58 C 556.57,412.88 557.41,415.96 559.11,420.35 C 559.91,422.39 560.1,422.94 560.1,423.93 C 560.1,426.18 558.51,428.02 556.02,428.02 C 551.29,428.02 549.45,420.79 549.45,420.35 C 549.45,419.85 549.94,419.85 550.04,419.85 C 550.54,419.85 550.59,419.95 550.84,420.75 C 552.18,425.43 554.18,426.92 555.87,426.92 C 556.27,426.92 557.12,426.92 557.12,425.33 C 557.12,424.08 556.62,422.79 556.27,421.84 C 554.28,416.56 553.38,413.72 553.38,411.38 C 553.38,406.95 556.52,405.45 559.46,405.45 C 561.4,405.45 563.09,406.3 564.49,407.7 C 563.84,405.1 563.24,402.66 561.25,400.02 C 559.96,398.33 558.06,396.88 555.77,396.88 C 555.07,396.88 552.83,397.04 551.98,398.98 C 552.78,398.98 553.43,398.98 554.13,399.57 C 554.63,400.02 555.13,400.67 555.13,401.62 C 555.13,403.16 553.78,403.36 553.28,403.36 C 552.13,403.36 550.49,402.56 550.49,400.12 C 550.49,397.63 552.68,395.79 555.77,395.79 C 560.9,395.79 566.03,400.32 567.43,405.95 L 572.21,424.98 z " /><path
           style="fill:#000000;stroke-width:0"
           id="path2439"
           d="M 589.61,405.35 L 588.42,405.35 C 588.32,404.58 587.97,402.52 587.52,402.17 C 587.24,401.96 584.55,401.96 584.07,401.96 L 577.65,401.96 C 581.31,405.21 582.53,406.18 584.62,407.82 C 587.2,409.88 589.61,412.04 589.61,415.36 C 589.61,419.57 585.91,422.15 581.45,422.15 C 577.13,422.15 574.2,419.12 574.2,415.91 C 574.2,414.13 575.7,413.96 576.04,413.96 C 576.88,413.96 577.9,414.55 577.9,415.81 C 577.9,416.43 577.65,417.66 575.84,417.66 C 576.92,420.13 579.29,420.9 580.93,420.9 C 584.41,420.9 586.23,418.18 586.23,415.36 C 586.23,412.32 584.07,409.91 582.95,408.66 L 574.55,400.36 C 574.2,400.05 574.2,399.98 574.2,399 L 588.56,399 L 589.61,405.35 z " /><path
           style="fill:#000000;stroke-width:0"
           id="path2441"
           d="M 609.4,418.45 L 609.39,418.82 L 609.39,419.21 L 609.38,419.6 L 609.37,420.01 L 609.33,420.85 L 609.27,421.73 L 609.18,422.65 L 609.08,423.59 L 608.94,424.57 L 608.78,425.57 L 608.58,426.59 L 608.35,427.63 L 608.08,428.68 L 607.78,429.74 L 607.43,430.8 L 607.04,431.87 L 606.82,432.4 L 606.6,432.94 L 606.36,433.47 L 606.11,434 C 603.12,440.12 598.84,443.36 598.34,443.36 C 598.04,443.36 597.84,443.16 597.84,442.86 C 597.84,442.71 597.84,442.61 598.78,441.71 C 603.67,436.79 606.51,428.86 606.51,418.45 C 606.51,409.93 604.66,401.17 598.49,394.89 C 597.84,394.29 597.84,394.2 597.84,394.04 C 597.84,393.75 598.04,393.55 598.34,393.55 C 598.84,393.55 603.32,396.93 606.26,403.26 C 608.8,408.74 609.4,414.27 609.4,418.45 z " /></g>    </g>
    <rect
       y="749.43359"
       x="214.44052"
       height="71.530098"
       style="fill:#ffffff;fill-opacity:1;fill-rule:evenodd;stroke:none;stroke-width:1px;stroke-linecap:butt;stroke-linejoin:miter;stroke-opacity:1"
       id="rect3596"
       width="251.20088" />
    <g
       id="g2493"
       transform="matrix(1.25,0,0,1.25,-216.05388,411.87566)">
      <g
         style="font-style:normal;font-variant:normal;font-weight:normal;font-stretch:normal;letter-spacing:normal;word-spacing:normal;text-anchor:start;fill:none;fill-opacity:1;fill-rule:evenodd;stroke:#000000;stroke-linecap:butt;stroke-linejoin:miter;stroke-miterlimit:10.43299961;stroke-dasharray:none;stroke-dashoffset:0;stroke-opacity:1"
         id="g2495"
         xml:space="preserve"
         transform="matrix(1.2385714,0,0,-1.2385714,-216.75,812.25)"><path
           style="fill:#000000;stroke-width:0"
           id="path2497"
           d="M 472.64,421.04 L 472.67,421.17 L 472.7,421.32 L 472.75,421.49 L 472.79,421.67 L 472.85,421.86 L 472.91,422.07 L 472.97,422.28 L 473.04,422.51 L 473.12,422.74 L 473.21,422.98 L 473.31,423.23 L 473.41,423.47 L 473.52,423.72 L 473.64,423.97 L 473.77,424.22 L 473.91,424.47 L 474.06,424.71 L 474.21,424.95 L 474.38,425.18 L 474.56,425.4 L 474.74,425.62 L 474.94,425.82 L 475.15,426.01 L 475.37,426.19 L 475.6,426.35 L 475.85,426.49 L 475.97,426.56 L 476.1,426.62 L 476.23,426.67 L 476.37,426.72 L 476.51,426.77 L 476.65,426.81 L 476.79,426.84 L 476.94,426.87 L 477.09,426.89 L 477.25,426.91 L 477.41,426.92 L 477.57,426.92 C 477.82,426.92 479.02,426.92 480.06,426.27 C 478.66,426.02 477.67,424.78 477.67,423.59 C 477.67,422.79 478.21,421.84 479.56,421.84 C 480.66,421.84 482.25,422.74 482.25,424.73 C 482.25,427.32 479.31,428.02 477.62,428.02 C 474.73,428.02 472.98,425.38 472.39,424.23 C 471.14,427.52 468.45,428.02 467.01,428.02 C 461.83,428.02 458.99,421.59 458.99,420.35 C 458.99,419.85 459.49,419.85 459.59,419.85 C 459.98,419.85 460.13,419.95 460.23,420.39 C 461.93,425.68 465.21,426.92 466.91,426.92 C 467.86,426.92 469.6,426.47 469.6,423.59 C 469.6,422.04 468.75,418.7 466.91,411.73 C 466.11,408.64 464.37,406.55 462.18,406.55 C 461.88,406.55 460.73,406.55 459.69,407.2 C 460.93,407.45 462.03,408.49 462.03,409.89 C 462.03,411.23 460.93,411.63 460.18,411.63 C 458.69,411.63 457.45,410.33 457.45,408.74 C 457.45,406.45 459.93,405.45 462.13,405.45 C 465.41,405.45 467.21,408.94 467.36,409.24 C 467.96,407.39 469.75,405.45 472.74,405.45 C 477.87,405.45 480.71,411.88 480.71,413.13 C 480.71,413.62 480.26,413.62 480.11,413.62 C 479.66,413.62 479.56,413.42 479.46,413.07 C 477.82,407.74 474.43,406.55 472.84,406.55 C 470.89,406.55 470.1,408.14 470.1,409.84 C 470.1,410.93 470.39,412.03 470.95,414.22 L 472.64,421.04 z " /><path
           style="fill:#000000;stroke-width:0"
           id="path2499"
           d="M 501.61,405.35 L 500.42,405.35 C 500.32,404.58 499.97,402.52 499.52,402.17 C 499.24,401.96 496.55,401.96 496.07,401.96 L 489.65,401.96 C 493.31,405.21 494.53,406.18 496.62,407.82 C 499.2,409.88 501.61,412.04 501.61,415.36 C 501.61,419.57 497.91,422.15 493.45,422.15 C 489.13,422.15 486.2,419.12 486.2,415.91 C 486.2,414.13 487.7,413.96 488.04,413.96 C 488.88,413.96 489.89,414.55 489.89,415.81 C 489.89,416.43 489.65,417.66 487.84,417.66 C 488.92,420.13 491.29,420.9 492.93,420.9 C 496.41,420.9 498.23,418.18 498.23,415.36 C 498.23,412.32 496.07,409.91 494.95,408.66 L 486.55,400.36 C 486.2,400.05 486.2,399.98 486.2,399 L 500.56,399 L 501.61,405.35 z " /><path
           style="fill:#000000;stroke-width:0"
           id="path2501"
           d="M 549.93,417.46 L 550.06,417.46 L 550.2,417.46 L 550.34,417.46 L 550.41,417.47 L 550.48,417.47 L 550.55,417.48 L 550.62,417.49 L 550.69,417.5 L 550.75,417.51 L 550.82,417.52 L 550.88,417.54 L 550.95,417.56 L 551.01,417.58 L 551.07,417.61 L 551.13,417.63 L 551.18,417.67 L 551.23,417.7 L 551.28,417.74 L 551.33,417.78 L 551.37,417.83 L 551.39,417.85 L 551.41,417.88 L 551.43,417.9 L 551.45,417.93 L 551.46,417.96 L 551.48,417.99 L 551.49,418.02 L 551.51,418.06 L 551.52,418.09 L 551.53,418.12 L 551.54,418.16 L 551.55,418.2 L 551.55,418.24 L 551.56,418.28 L 551.56,418.32 L 551.57,418.36 L 551.57,418.41 L 551.57,418.45 C 551.57,419.45 550.63,419.45 549.93,419.45 L 522.78,419.45 C 522.08,419.45 521.13,419.45 521.13,418.45 C 521.13,417.46 522.08,417.46 522.78,417.46 L 549.93,417.46 z " /><path
           style="fill:#000000;stroke-width:0"
           id="path2503"
           d="M 583.64,421.04 L 583.67,421.17 L 583.7,421.32 L 583.75,421.49 L 583.79,421.67 L 583.85,421.86 L 583.91,422.07 L 583.97,422.28 L 584.04,422.51 L 584.12,422.74 L 584.21,422.98 L 584.31,423.23 L 584.41,423.47 L 584.52,423.72 L 584.64,423.97 L 584.77,424.22 L 584.91,424.47 L 585.06,424.71 L 585.21,424.95 L 585.38,425.18 L 585.56,425.4 L 585.74,425.62 L 585.94,425.82 L 586.15,426.01 L 586.37,426.19 L 586.6,426.35 L 586.85,426.49 L 586.97,426.56 L 587.1,426.62 L 587.23,426.67 L 587.37,426.72 L 587.51,426.77 L 587.65,426.81 L 587.79,426.84 L 587.94,426.87 L 588.09,426.89 L 588.25,426.91 L 588.41,426.92 L 588.57,426.92 C 588.82,426.92 590.02,426.92 591.06,426.27 C 589.66,426.02 588.67,424.78 588.67,423.59 C 588.67,422.79 589.22,421.84 590.56,421.84 C 591.66,421.84 593.25,422.74 593.25,424.73 C 593.25,427.32 590.31,428.02 588.62,428.02 C 585.73,428.02 583.98,425.38 583.39,424.23 C 582.15,427.52 579.45,428.02 578.01,428.02 C 572.83,428.02 569.99,421.59 569.99,420.35 C 569.99,419.85 570.49,419.85 570.59,419.85 C 570.98,419.85 571.13,419.95 571.23,420.39 C 572.93,425.68 576.22,426.92 577.91,426.92 C 578.85,426.92 580.6,426.47 580.6,423.59 C 580.6,422.04 579.75,418.7 577.91,411.73 C 577.11,408.64 575.37,406.55 573.18,406.55 C 572.88,406.55 571.73,406.55 570.69,407.2 C 571.93,407.45 573.03,408.49 573.03,409.89 C 573.03,411.23 571.93,411.63 571.18,411.63 C 569.69,411.63 568.45,410.33 568.45,408.74 C 568.45,406.45 570.93,405.45 573.13,405.45 C 576.41,405.45 578.21,408.94 578.35,409.24 C 578.96,407.39 580.75,405.45 583.74,405.45 C 588.87,405.45 591.71,411.88 591.71,413.13 C 591.71,413.62 591.26,413.62 591.11,413.62 C 590.66,413.62 590.56,413.42 590.46,413.07 C 588.82,407.74 585.43,406.55 583.84,406.55 C 581.9,406.55 581.1,408.14 581.1,409.84 C 581.1,410.93 581.4,412.03 581.95,414.22 L 583.64,421.04 z " /><path
           style="fill:#000000;stroke-width:0"
           id="path2505"
           d="M 607.68,421.18 L 607.68,421.22 L 607.68,421.26 L 607.68,421.3 L 607.68,421.34 L 607.68,421.38 L 607.68,421.42 L 607.68,421.45 L 607.68,421.49 L 607.67,421.52 L 607.67,421.55 L 607.67,421.59 L 607.67,421.62 L 607.66,421.64 L 607.66,421.67 L 607.66,421.7 L 607.65,421.73 L 607.65,421.75 L 607.65,421.77 L 607.63,421.82 L 607.62,421.86 L 607.61,421.9 L 607.59,421.93 L 607.57,421.96 L 607.55,421.99 L 607.52,422.02 L 607.5,422.04 L 607.47,422.06 L 607.43,422.08 L 607.4,422.09 L 607.36,422.1 L 607.31,422.12 L 607.26,422.12 L 607.24,422.13 L 607.21,422.13 L 607.18,422.14 L 607.16,422.14 L 607.13,422.14 L 607.1,422.14 L 607.06,422.14 L 607.03,422.15 L 607,422.15 L 606.96,422.15 L 606.93,422.15 L 606.89,422.15 L 606.85,422.15 L 606.81,422.15 L 606.77,422.15 L 606.73,422.15 L 606.68,422.15 L 606.64,422.15 C 604.4,419.96 601.23,419.92 599.8,419.92 L 599.8,418.67 C 600.64,418.67 602.94,418.67 604.85,419.64 L 604.85,401.86 C 604.85,400.71 604.85,400.25 601.37,400.25 L 600.04,400.25 L 600.04,399 C 600.67,399.04 604.96,399.14 606.25,399.14 C 607.33,399.14 611.73,399.04 612.49,399 L 612.49,400.25 L 611.17,400.25 C 607.68,400.25 607.68,400.71 607.68,401.86 L 607.68,421.18 z " /></g>    </g>
    <rect
       y="481.69901"
       x="644.78857"
       height="67.489487"
       style="fill:#ffffff;fill-opacity:1;fill-rule:evenodd;stroke:none;stroke-width:1px;stroke-linecap:butt;stroke-linejoin:miter;stroke-opacity:1"
       id="rect3598"
       width="259.2821" />
    <g
       id="g2571"
       transform="matrix(1.25,0,0,1.25,223.68579,141.62379)">
      <g
         style="font-style:normal;font-variant:normal;font-weight:normal;font-stretch:normal;letter-spacing:normal;word-spacing:normal;text-anchor:start;fill:none;fill-opacity:1;fill-rule:evenodd;stroke:#000000;stroke-linecap:butt;stroke-linejoin:miter;stroke-miterlimit:10.43299961;stroke-dasharray:none;stroke-dashoffset:0;stroke-opacity:1"
         id="g2573"
         xml:space="preserve"
         transform="matrix(1.2385714,0,0,-1.2385714,-216.75,812.25)"><path
           style="fill:#000000;stroke-width:0"
           id="path2575"
           d="M 480.21,424.98 L 480.22,425.01 L 480.23,425.04 L 480.24,425.07 L 480.25,425.1 L 480.26,425.16 L 480.28,425.21 L 480.29,425.27 L 480.3,425.31 L 480.32,425.36 L 480.33,425.4 L 480.34,425.44 L 480.35,425.48 L 480.35,425.52 L 480.36,425.56 L 480.37,425.59 L 480.37,425.62 L 480.38,425.65 L 480.39,425.68 L 480.39,425.71 L 480.39,425.74 L 480.4,425.77 L 480.4,425.79 L 480.4,425.85 L 480.41,425.9 L 480.41,425.95 L 480.41,426 L 480.41,426.03 L 480.41,426.06 L 480.41,426.09 L 480.41,426.13 C 480.41,427.02 479.71,427.47 478.96,427.47 C 478.46,427.47 477.67,427.17 477.22,426.42 C 477.12,426.18 476.72,424.63 476.52,423.73 C 476.18,422.44 475.82,421.09 475.53,419.75 L 473.29,410.78 C 473.09,410.04 470.95,406.55 467.66,406.55 C 465.12,406.55 464.57,408.74 464.57,410.58 C 464.57,412.88 465.41,415.96 467.11,420.35 C 467.91,422.39 468.11,422.94 468.11,423.93 C 468.11,426.18 466.51,428.02 464.02,428.02 C 459.29,428.02 457.45,420.79 457.45,420.35 C 457.45,419.85 457.94,419.85 458.04,419.85 C 458.54,419.85 458.59,419.95 458.84,420.75 C 460.18,425.43 462.18,426.92 463.87,426.92 C 464.27,426.92 465.12,426.92 465.12,425.33 C 465.12,424.08 464.62,422.79 464.27,421.84 C 462.28,416.56 461.38,413.72 461.38,411.38 C 461.38,406.95 464.52,405.45 467.46,405.45 C 469.4,405.45 471.09,406.3 472.49,407.7 C 471.84,405.1 471.24,402.66 469.25,400.02 C 467.96,398.33 466.06,396.88 463.77,396.88 C 463.07,396.88 460.83,397.04 459.98,398.98 C 460.78,398.98 461.43,398.98 462.13,399.57 C 462.63,400.02 463.13,400.67 463.13,401.62 C 463.13,403.16 461.78,403.36 461.28,403.36 C 460.13,403.36 458.49,402.56 458.49,400.12 C 458.49,397.63 460.68,395.79 463.77,395.79 C 468.9,395.79 474.03,400.32 475.43,405.95 L 480.21,424.98 z " /><path
           style="fill:#000000;stroke-width:0"
           id="path2577"
           d="M 497.61,405.35 L 496.42,405.35 C 496.32,404.58 495.97,402.52 495.52,402.17 C 495.24,401.96 492.55,401.96 492.07,401.96 L 485.65,401.96 C 489.31,405.21 490.53,406.18 492.62,407.82 C 495.2,409.88 497.61,412.04 497.61,415.36 C 497.61,419.57 493.91,422.15 489.45,422.15 C 485.13,422.15 482.2,419.12 482.2,415.91 C 482.2,414.13 483.7,413.96 484.04,413.96 C 484.88,413.96 485.89,414.55 485.89,415.81 C 485.89,416.43 485.65,417.66 483.84,417.66 C 484.92,420.13 487.29,420.9 488.93,420.9 C 492.41,420.9 494.23,418.18 494.23,415.36 C 494.23,412.32 492.07,409.91 490.95,408.66 L 482.55,400.36 C 482.2,400.05 482.2,399.98 482.2,399 L 496.56,399 L 497.61,405.35 z " /><path
           style="fill:#000000;stroke-width:0"
           id="path2579"
           d="M 545.93,417.46 L 546.06,417.46 L 546.2,417.46 L 546.34,417.46 L 546.41,417.47 L 546.48,417.47 L 546.55,417.48 L 546.62,417.49 L 546.69,417.5 L 546.75,417.51 L 546.82,417.52 L 546.88,417.54 L 546.95,417.56 L 547.01,417.58 L 547.07,417.61 L 547.13,417.63 L 547.18,417.67 L 547.23,417.7 L 547.28,417.74 L 547.33,417.78 L 547.37,417.83 L 547.39,417.85 L 547.41,417.88 L 547.43,417.9 L 547.45,417.93 L 547.46,417.96 L 547.48,417.99 L 547.49,418.02 L 547.51,418.06 L 547.52,418.09 L 547.53,418.12 L 547.54,418.16 L 547.55,418.2 L 547.55,418.24 L 547.56,418.28 L 547.56,418.32 L 547.57,418.36 L 547.57,418.41 L 547.57,418.45 C 547.57,419.45 546.63,419.45 545.93,419.45 L 518.78,419.45 C 518.08,419.45 517.13,419.45 517.13,418.45 C 517.13,417.46 518.08,417.46 518.78,417.46 L 545.93,417.46 z " /><path
           style="fill:#000000;stroke-width:0"
           id="path2581"
           d="M 587.21,424.98 L 587.22,425.01 L 587.23,425.04 L 587.24,425.07 L 587.25,425.1 L 587.26,425.16 L 587.28,425.21 L 587.29,425.27 L 587.3,425.31 L 587.32,425.36 L 587.33,425.4 L 587.34,425.44 L 587.35,425.48 L 587.35,425.52 L 587.36,425.56 L 587.37,425.59 L 587.37,425.62 L 587.38,425.65 L 587.39,425.68 L 587.39,425.71 L 587.39,425.74 L 587.4,425.77 L 587.4,425.79 L 587.4,425.85 L 587.41,425.9 L 587.41,425.95 L 587.41,426 L 587.41,426.03 L 587.41,426.06 L 587.41,426.09 L 587.41,426.13 C 587.41,427.02 586.71,427.47 585.97,427.47 C 585.47,427.47 584.67,427.17 584.22,426.42 C 584.12,426.18 583.72,424.63 583.52,423.73 C 583.18,422.44 582.82,421.09 582.53,419.75 L 580.28,410.78 C 580.09,410.04 577.95,406.55 574.66,406.55 C 572.12,406.55 571.57,408.74 571.57,410.58 C 571.57,412.88 572.41,415.96 574.11,420.35 C 574.91,422.39 575.1,422.94 575.1,423.93 C 575.1,426.18 573.51,428.02 571.02,428.02 C 566.29,428.02 564.45,420.79 564.45,420.35 C 564.45,419.85 564.94,419.85 565.04,419.85 C 565.54,419.85 565.59,419.95 565.84,420.75 C 567.18,425.43 569.18,426.92 570.87,426.92 C 571.27,426.92 572.12,426.92 572.12,425.33 C 572.12,424.08 571.62,422.79 571.27,421.84 C 569.28,416.56 568.38,413.72 568.38,411.38 C 568.38,406.95 571.52,405.45 574.46,405.45 C 576.4,405.45 578.09,406.3 579.49,407.7 C 578.84,405.1 578.24,402.66 576.25,400.02 C 574.96,398.33 573.06,396.88 570.77,396.88 C 570.07,396.88 567.83,397.04 566.98,398.98 C 567.78,398.98 568.43,398.98 569.13,399.57 C 569.63,400.02 570.13,400.67 570.13,401.62 C 570.13,403.16 568.78,403.36 568.28,403.36 C 567.13,403.36 565.49,402.56 565.49,400.12 C 565.49,397.63 567.68,395.79 570.77,395.79 C 575.9,395.79 581.03,400.32 582.43,405.95 L 587.21,424.98 z " /><path
           style="fill:#000000;stroke-width:0"
           id="path2583"
           d="M 599.68,421.18 L 599.68,421.22 L 599.68,421.26 L 599.68,421.3 L 599.68,421.34 L 599.68,421.38 L 599.68,421.42 L 599.68,421.45 L 599.68,421.49 L 599.67,421.52 L 599.67,421.55 L 599.67,421.59 L 599.67,421.62 L 599.66,421.64 L 599.66,421.67 L 599.66,421.7 L 599.65,421.73 L 599.65,421.75 L 599.65,421.77 L 599.63,421.82 L 599.62,421.86 L 599.61,421.9 L 599.59,421.93 L 599.57,421.96 L 599.55,421.99 L 599.52,422.02 L 599.5,422.04 L 599.47,422.06 L 599.43,422.08 L 599.4,422.09 L 599.36,422.1 L 599.31,422.12 L 599.26,422.12 L 599.24,422.13 L 599.21,422.13 L 599.18,422.14 L 599.16,422.14 L 599.13,422.14 L 599.1,422.14 L 599.06,422.14 L 599.03,422.15 L 599,422.15 L 598.96,422.15 L 598.93,422.15 L 598.89,422.15 L 598.85,422.15 L 598.81,422.15 L 598.77,422.15 L 598.73,422.15 L 598.68,422.15 L 598.64,422.15 C 596.4,419.96 593.23,419.92 591.8,419.92 L 591.8,418.67 C 592.64,418.67 594.94,418.67 596.85,419.64 L 596.85,401.86 C 596.85,400.71 596.85,400.25 593.37,400.25 L 592.04,400.25 L 592.04,399 C 592.67,399.04 596.96,399.14 598.25,399.14 C 599.33,399.14 603.73,399.04 604.49,399 L 604.49,400.25 L 603.17,400.25 C 599.68,400.25 599.68,400.71 599.68,401.86 L 599.68,421.18 z " /></g>    </g>
    <g
       id="g3644"
       transform="matrix(1.25,0,0,1.25,-152.15523,97.124734)">
      <g
         id="g3646"
         transform="matrix(1.2385714,0,0,-1.2385714,-216.75,812.25)"
         style="font-style:normal;font-variant:normal;font-weight:normal;font-stretch:normal;letter-spacing:normal;word-spacing:normal;text-anchor:start;fill:none;fill-opacity:1;fill-rule:evenodd;stroke:#000000;stroke-linecap:butt;stroke-linejoin:miter;stroke-miterlimit:10.43299961;stroke-dasharray:none;stroke-dashoffset:0;stroke-opacity:1"
         xml:space="preserve"><path
           id="path3648"
           d="M 481.7,440.02 L 481.7,440.03 L 481.7,440.03 L 481.7,440.04 L 481.7,440.05 L 481.7,440.06 L 481.7,440.07 L 481.7,440.09 L 481.7,440.11 L 481.69,440.13 L 481.69,440.15 L 481.68,440.17 L 481.68,440.19 L 481.67,440.22 L 481.66,440.24 L 481.65,440.27 L 481.64,440.29 L 481.62,440.31 L 481.61,440.34 L 481.59,440.36 L 481.57,440.39 L 481.54,440.41 L 481.53,440.42 L 481.52,440.43 L 481.51,440.44 L 481.49,440.45 L 481.48,440.46 L 481.46,440.47 L 481.45,440.48 L 481.43,440.49 L 481.41,440.5 L 481.39,440.51 L 481.38,440.52 L 481.36,440.52 L 481.33,440.53 L 481.31,440.54 L 481.29,440.54 L 481.27,440.55 L 481.25,440.55 L 481.22,440.56 L 481.2,440.56 L 481.17,440.56 L 481.14,440.57 L 481.11,440.57 L 481.08,440.57 L 481.05,440.57 C 480.31,440.57 475.58,440.12 474.73,440.02 C 474.33,439.97 474.03,439.72 474.03,439.07 C 474.03,438.48 474.48,438.48 475.23,438.48 C 477.62,438.48 477.72,438.13 477.72,437.63 L 477.57,436.64 L 474.58,424.83 C 473.68,426.67 472.24,428.02 470,428.02 L 470.05,426.92 C 473.29,426.92 473.98,422.84 473.98,422.54 C 473.98,422.24 473.88,421.94 473.83,421.69 L 471.34,411.93 C 471.09,411.03 471.09,410.93 470.35,410.09 C 468.16,407.34 466.11,406.55 464.72,406.55 C 462.23,406.55 461.53,409.29 461.53,411.23 C 461.53,413.72 463.13,419.85 464.27,422.14 C 465.81,425.08 468.05,426.92 470.05,426.92 L 470,428.02 C 464.17,428.02 457.99,420.7 457.99,413.42 C 457.99,408.74 460.73,405.45 464.62,405.45 C 465.61,405.45 468.11,405.65 471.09,409.19 C 471.49,407.1 473.23,405.45 475.63,405.45 C 477.37,405.45 478.52,406.6 479.31,408.19 C 480.16,409.98 480.81,413.02 480.81,413.13 C 480.81,413.62 480.36,413.62 480.21,413.62 C 479.71,413.62 479.66,413.42 479.51,412.73 C 478.66,409.49 477.77,406.55 475.73,406.55 C 474.38,406.55 474.23,407.84 474.23,408.84 C 474.23,410.04 474.33,410.38 474.53,411.23 L 481.7,440.02 z "
           style="fill:#000000;stroke-width:0" /></g>    </g>
  </g>
</svg>
